<svg xmlns="http://www.w3.org/2000/svg" xmlns:xlink="http://www.w3.org/1999/xlink" width="1122" zoomAndPan="magnify" viewBox="0 0 841.92 1190.250009" height="1587" preserveAspectRatio="xMidYMid meet" version="1.0"><defs><clipPath id="b3d028b203"><path d="M 0.226562 0 L 841.613281 0 L 841.613281 1189.5 L 0.226562 1189.5 Z M 0.226562 0 " clip-rule="nonzero"/></clipPath><clipPath id="ed64a846be"><path d="M 0.226562 0 L 188 0 L 188 544 L 0.226562 544 Z M 0.226562 0 " clip-rule="nonzero"/></clipPath><clipPath id="62aa9c7b31"><path d="M 0.226562 0 L 359 0 L 359 321 L 0.226562 321 Z M 0.226562 0 " clip-rule="nonzero"/></clipPath><clipPath id="aa94d60000"><path d="M 0.226562 0 L 228 0 L 228 574.851562 L 0.226562 574.851562 Z M 0.226562 0 " clip-rule="nonzero"/></clipPath><clipPath id="3a4eceddc8"><path d="M 131 0 L 610.578125 0 L 610.578125 233 L 131 233 Z M 131 0 " clip-rule="nonzero"/></clipPath><clipPath id="63180f5e18"><path d="M 0.226562 0 L 399 0 L 399 354 L 0.226562 354 Z M 0.226562 0 " clip-rule="nonzero"/></clipPath><clipPath id="573eaef290"><path d="M 654 646 L 841.613281 646 L 841.613281 1189.5 L 654 1189.5 Z M 654 646 " clip-rule="nonzero"/></clipPath><clipPath id="1c391a6592"><path d="M 271 989 L 751 989 L 751 1189.5 L 271 1189.5 Z M 271 989 " clip-rule="nonzero"/></clipPath><clipPath id="077f2b163e"><path d="M 483 868 L 841.613281 868 L 841.613281 1189.5 L 483 1189.5 Z M 483 868 " clip-rule="nonzero"/></clipPath><clipPath id="720ad7aeee"><path d="M 614 614.941406 L 841.613281 614.941406 L 841.613281 1189.5 L 614 1189.5 Z M 614 614.941406 " clip-rule="nonzero"/></clipPath><clipPath id="efc59fb41c"><path d="M 231.230469 957 L 711 957 L 711 1189.5 L 231.230469 1189.5 Z M 231.230469 957 " clip-rule="nonzero"/></clipPath><clipPath id="4b4dc306b8"><path d="M 443 836 L 841.613281 836 L 841.613281 1189.5 L 443 1189.5 Z M 443 836 " clip-rule="nonzero"/></clipPath><clipPath id="68cef42955"><path d="M 84.359375 84.136719 L 757.449219 84.136719 L 757.449219 1105.664062 L 84.359375 1105.664062 Z M 84.359375 84.136719 " clip-rule="nonzero"/></clipPath><clipPath id="f729a70dde"><path d="M 114.480469 124.960938 L 727.324219 124.960938 L 727.324219 1064.839844 L 114.480469 1064.839844 Z M 114.480469 124.960938 " clip-rule="nonzero"/></clipPath><clipPath id="b8dd9d7451"><path d="M 501 0 L 841.613281 0 L 841.613281 223 L 501 223 Z M 501 0 " clip-rule="nonzero"/></clipPath><clipPath id="73ff869f3c"><path d="M 729 0 L 841.613281 0 L 841.613281 352 L 729 352 Z M 729 0 " clip-rule="nonzero"/></clipPath><clipPath id="7516a7ff99"><path d="M 458.226562 0 L 841.613281 0 L 841.613281 257 L 458.226562 257 Z M 458.226562 0 " clip-rule="nonzero"/></clipPath><clipPath id="4d7e11e4b1"><path d="M 686 0 L 841.613281 0 L 841.613281 387 L 686 387 Z M 686 0 " clip-rule="nonzero"/></clipPath><clipPath id="458849b4d3"><path d="M 0.226562 967 L 341 967 L 341 1189.5 L 0.226562 1189.5 Z M 0.226562 967 " clip-rule="nonzero"/></clipPath><clipPath id="89da91ba6d"><path d="M 0.226562 837 L 113 837 L 113 1189.5 L 0.226562 1189.5 Z M 0.226562 837 " clip-rule="nonzero"/></clipPath><clipPath id="c70631251f"><path d="M 0.226562 933 L 383.578125 933 L 383.578125 1189.5 L 0.226562 1189.5 Z M 0.226562 933 " clip-rule="nonzero"/></clipPath><clipPath id="1c8987ea65"><path d="M 0.226562 803 L 156 803 L 156 1189.5 L 0.226562 1189.5 Z M 0.226562 803 " clip-rule="nonzero"/></clipPath></defs><g clip-path="url(#b3d028b203)"><path fill="#ffffff" d="M 0.226562 0 L 841.945312 0 L 841.945312 1189.5 L 0.226562 1189.5 Z M 0.226562 0 " fill-opacity="1" fill-rule="nonzero"/><path fill="#ffffff" d="M 0.226562 0 L 841.945312 0 L 841.945312 1189.5 L 0.226562 1189.5 Z M 0.226562 0 " fill-opacity="1" fill-rule="nonzero"/></g><g clip-path="url(#ed64a846be)"><path fill="#f4f5f6" d="M -149.417969 -85.480469 L -121.054688 -85.480469 L 187.363281 106.414062 L -149.417969 543.054688 Z M -149.417969 -85.480469 " fill-opacity="1" fill-rule="evenodd"/></g><path fill="#f4f5f6" d="M 90.980469 -85.480469 L 570.445312 -85.480469 L 424.105469 200.257812 C 424.105469 200.257812 214.835938 14.898438 90.980469 -85.480469 Z M 90.980469 -85.480469 " fill-opacity="1" fill-rule="evenodd"/><g clip-path="url(#62aa9c7b31)"><path fill="#f4f5f6" d="M -149.417969 -85.480469 L 358.078125 -85.480469 L 205.199219 320.914062 L -149.417969 -83.375 Z M -149.417969 -85.480469 " fill-opacity="1" fill-rule="evenodd"/></g><g clip-path="url(#aa94d60000)"><path fill="#86d0da" d="M -109.203125 -53.351562 L -80.953125 -53.351562 L 227.574219 138.546875 L -109.203125 575.296875 Z M -109.203125 -53.351562 " fill-opacity="1" fill-rule="evenodd"/></g><g clip-path="url(#3a4eceddc8)"><path fill="#388d9b" d="M 131.195312 -53.351562 L 610.660156 -53.351562 L 464.316406 232.386719 C 464.316406 232.386719 254.9375 47.027344 131.195312 -53.351562 Z M 131.195312 -53.351562 " fill-opacity="1" fill-rule="evenodd"/></g><g clip-path="url(#63180f5e18)"><path fill="#4ab7c3" d="M -109.203125 -53.351562 L 398.179688 -53.351562 L 245.410156 353.042969 L -109.203125 -51.246094 Z M -109.203125 -53.351562 " fill-opacity="1" fill-rule="evenodd"/></g><g clip-path="url(#573eaef290)"><path fill="#f4f5f6" d="M 991.226562 1275.277344 L 962.867188 1275.277344 L 654.449219 1083.378906 L 991.226562 646.738281 Z M 991.226562 1275.277344 " fill-opacity="1" fill-rule="evenodd"/></g><g clip-path="url(#1c391a6592)"><path fill="#f4f5f6" d="M 750.828125 1275.277344 L 271.363281 1275.277344 L 417.707031 989.539062 C 417.707031 989.539062 626.972656 1174.894531 750.828125 1275.277344 Z M 750.828125 1275.277344 " fill-opacity="1" fill-rule="evenodd"/></g><g clip-path="url(#077f2b163e)"><path fill="#f4f5f6" d="M 991.226562 1275.277344 L 483.730469 1275.277344 L 636.613281 868.882812 L 991.226562 1273.171875 Z M 991.226562 1275.277344 " fill-opacity="1" fill-rule="evenodd"/></g><g clip-path="url(#720ad7aeee)"><path fill="#86d0da" d="M 951.011719 1243.144531 L 922.761719 1243.144531 L 614.234375 1051.25 L 951.011719 614.5 Z M 951.011719 1243.144531 " fill-opacity="1" fill-rule="evenodd"/></g><g clip-path="url(#efc59fb41c)"><path fill="#388d9b" d="M 710.613281 1243.144531 L 231.148438 1243.144531 L 377.492188 957.40625 C 377.492188 957.40625 586.871094 1142.765625 710.613281 1243.144531 Z M 710.613281 1243.144531 " fill-opacity="1" fill-rule="evenodd"/></g><g clip-path="url(#4b4dc306b8)"><path fill="#4ab7c3" d="M 951.011719 1243.144531 L 443.628906 1243.144531 L 596.398438 836.753906 L 951.011719 1241.039062 Z M 951.011719 1243.144531 " fill-opacity="1" fill-rule="evenodd"/></g><g clip-path="url(#68cef42955)"><path fill="#ffffff" d="M 84.359375 84.136719 L 757.449219 84.136719 L 757.449219 1106.914062 L 84.359375 1106.914062 Z M 84.359375 84.136719 " fill-opacity="1" fill-rule="nonzero"/></g><g clip-path="url(#f729a70dde)"><path stroke-linecap="butt" transform="matrix(0.749528, 0, 0, 0.749528, 114.48117, 124.960271)" fill="none" stroke-linejoin="miter" d="M -0.000935256 0.000889263 L 817.638927 0.000889263 L 817.638927 1253.962375 L -0.000935256 1253.962375 Z M -0.000935256 0.000889263 " stroke="#13515b" stroke-width="10" stroke-opacity="1" stroke-miterlimit="4"/></g><g clip-path="url(#b8dd9d7451)"><path fill="#f4f5f6" d="M 1017.234375 -85.449219 L 501.257812 -85.449219 L 658.746094 222.011719 C 658.746094 222.011719 883.949219 22.5625 1017.234375 -85.449219 Z M 1017.234375 -85.449219 " fill-opacity="1" fill-rule="evenodd"/></g><g clip-path="url(#73ff869f3c)"><path fill="#f4f5f6" d="M 1275.9375 -85.449219 L 729.800781 -85.449219 L 894.320312 351.84375 L 1275.9375 -83.183594 Z M 1275.9375 -85.449219 " fill-opacity="1" fill-rule="evenodd"/></g><g clip-path="url(#7516a7ff99)"><path fill="#4ab7c3" d="M 973.957031 -50.878906 L 457.980469 -50.878906 L 615.46875 256.585938 C 615.46875 256.585938 840.792969 57.132812 973.957031 -50.878906 Z M 973.957031 -50.878906 " fill-opacity="1" fill-rule="evenodd"/></g><g clip-path="url(#4d7e11e4b1)"><path fill="#86d0da" d="M 1232.660156 -50.878906 L 686.640625 -50.878906 L 851.042969 386.414062 L 1232.660156 -48.613281 Z M 1232.660156 -50.878906 " fill-opacity="1" fill-rule="evenodd"/></g><g clip-path="url(#458849b4d3)"><path fill="#f4f5f6" d="M -175.425781 1275.25 L 340.550781 1275.25 L 183.0625 967.789062 C 183.0625 967.789062 -42.140625 1167.238281 -175.425781 1275.25 Z M -175.425781 1275.25 " fill-opacity="1" fill-rule="evenodd"/></g><g clip-path="url(#89da91ba6d)"><path fill="#f4f5f6" d="M -434.128906 1275.25 L 112.007812 1275.25 L -52.511719 837.957031 L -434.128906 1272.984375 Z M -434.128906 1275.25 " fill-opacity="1" fill-rule="evenodd"/></g><g clip-path="url(#c70631251f)"><path fill="#4ab7c3" d="M -132.152344 1240.679688 L 383.824219 1240.679688 L 226.339844 933.214844 C 226.339844 933.214844 1.015625 1132.667969 -132.152344 1240.679688 Z M -132.152344 1240.679688 " fill-opacity="1" fill-rule="evenodd"/></g><g clip-path="url(#1c8987ea65)"><path fill="#86d0da" d="M -390.855469 1240.679688 L 155.164062 1240.679688 L -9.238281 803.386719 L -390.855469 1238.414062 Z M -390.855469 1240.679688 " fill-opacity="1" fill-rule="evenodd"/></g></svg>